<?xml version="1.0" standalone="no"?>
<!DOCTYPE svg PUBLIC "-//W3C//DTD SVG 20010904//EN"
 "http://www.w3.org/TR/2001/REC-SVG-20010904/DTD/svg10.dtd">
<svg version="1.0" xmlns="http://www.w3.org/2000/svg"
 width="512.000000pt" height="512.000000pt" viewBox="0 0 512.000000 512.000000"
 preserveAspectRatio="xMidYMid meet">

<g transform="translate(0.000000,512.000000) scale(0.100000,-0.100000)"
fill="#000000" stroke="none">
<path d="M2384 5110 c-614 -41 -1188 -304 -1629 -745 -347 -346 -584 -775
-689 -1245 -80 -360 -80 -760 0 -1120 188 -842 800 -1541 1614 -1840 123 -45
343 -104 428 -116 l52 -7 0 892 0 891 -325 0 -325 0 0 370 0 370 325 0 325 0
0 354 c0 271 4 374 15 442 57 330 236 569 510 683 164 68 205 75 475 75 181 1
280 -4 380 -17 74 -10 141 -20 148 -22 9 -3 12 -76 12 -318 l0 -314 -212 -6
c-240 -6 -290 -16 -375 -74 -29 -19 -66 -56 -83 -81 -57 -86 -62 -119 -67
-434 l-5 -288 356 0 c313 0 356 -2 356 -15 0 -17 -96 -652 -106 -697 l-6 -28
-299 0 -299 0 0 -891 0 -892 52 7 c161 22 458 118 653 211 781 375 1313 1112
1430 1980 22 160 22 488 0 650 -76 571 -325 1076 -730 1480 -525 526 -1240
794 -1981 745z"/>
</g>
</svg>
