<?xml version="1.0" standalone="no"?>
<!DOCTYPE svg PUBLIC "-//W3C//DTD SVG 20010904//EN"
 "http://www.w3.org/TR/2001/REC-SVG-20010904/DTD/svg10.dtd">
<svg version="1.0" xmlns="http://www.w3.org/2000/svg"
 width="512.000000pt" height="512.000000pt" viewBox="0 0 512.000000 512.000000"
 preserveAspectRatio="xMidYMid meet">

<g transform="translate(0.000000,512.000000) scale(0.100000,-0.100000)"
fill="#000000" stroke="none">
<path d="M1665 5109 c-376 -13 -577 -46 -790 -129 -183 -72 -316 -162 -464
-315 -141 -146 -232 -299 -301 -503 -64 -191 -86 -350 -100 -737 -10 -281 -11
-1243 -1 -1365 l6 -74 220 -67 220 -67 6 847 c7 997 14 1108 85 1321 49 147
99 226 214 341 95 96 115 111 210 157 112 55 245 94 375 112 158 21 532 30
1225 30 740 0 1079 -10 1245 -36 442 -70 717 -330 800 -759 31 -161 37 -312
42 -1105 9 -1304 -9 -1534 -138 -1794 -42 -85 -82 -140 -163 -223 -27 -29 -48
-54 -45 -56 3 -3 290 -91 450 -137 22 -7 30 -1 67 49 131 175 232 459 261 736
41 386 42 2065 1 2450 -42 389 -182 692 -428 927 -227 215 -514 338 -887 378
-258 27 -1540 39 -2110 19z"/>
<path d="M3813 4210 c-64 -26 -131 -89 -163 -155 -36 -73 -35 -190 2 -260 32
-60 87 -115 148 -146 66 -34 186 -33 255 0 227 112 235 425 14 546 -72 39
-179 45 -256 15z"/>
<path d="M2335 3854 c-253 -45 -489 -164 -677 -343 -189 -179 -310 -388 -375
-648 -25 -99 -28 -124 -27 -303 0 -209 14 -296 70 -448 251 -666 971 -1016
1640 -797 431 141 748 479 867 925 30 111 31 123 31 320 0 197 -1 209 -31 320
-65 245 -176 436 -352 610 -199 198 -431 318 -700 364 -116 20 -335 20 -446 0z
m422 -464 c257 -61 473 -241 584 -485 93 -206 93 -484 0 -690 -198 -436 -712
-630 -1138 -430 -238 112 -412 324 -473 577 -27 113 -27 283 0 395 74 310 319
557 628 633 108 26 289 26 399 0z"/>
</g>
</svg>
