<?xml version="1.0" standalone="no"?>
<!DOCTYPE svg PUBLIC "-//W3C//DTD SVG 20010904//EN"
 "http://www.w3.org/TR/2001/REC-SVG-20010904/DTD/svg10.dtd">
<svg version="1.0" xmlns="http://www.w3.org/2000/svg"
 width="512.000000pt" height="512.000000pt" viewBox="0 0 512.000000 512.000000"
 preserveAspectRatio="xMidYMid meet">

<g transform="translate(0.000000,512.000000) scale(0.100000,-0.100000)"
fill="#000000" stroke="none">
<path d="M555 5110 c-259 -39 -460 -217 -532 -471 -17 -61 -18 -161 -18 -2079
0 -1918 1 -2018 18 -2079 64 -225 233 -394 458 -458 61 -17 161 -18 2079 -18
1918 0 2018 1 2079 18 225 64 394 233 458 458 17 61 18 161 18 2079 0 1918 -1
2018 -18 2079 -63 223 -228 389 -453 457 -56 18 -163 19 -2049 20 -1094 1
-2012 -2 -2040 -6z m616 -544 c186 -40 317 -178 350 -369 36 -214 -95 -421
-307 -486 -257 -80 -514 18 -616 235 -26 56 -32 82 -36 163 -6 143 31 243 128
338 113 110 301 157 481 119z m2628 -1192 c423 -87 689 -409 750 -909 7 -58
11 -375 11 -902 l0 -813 -430 0 -429 0 -3 778 c-4 765 -4 778 -26 855 -41 149
-113 245 -220 295 -52 25 -67 27 -182 27 -120 0 -128 -1 -193 -32 -136 -65
-248 -220 -267 -369 -5 -38 -9 -403 -10 -811 l0 -743 -430 0 -430 0 0 1295 0
1295 430 0 430 0 2 -181 3 -181 38 54 c47 70 156 177 226 224 188 127 468 172
730 118z m-2329 -1329 l0 -1295 -430 0 -430 0 0 1295 0 1295 430 0 430 0 0
-1295z"/>
</g>
</svg>
