<?xml version="1.0" standalone="no"?>
<!DOCTYPE svg PUBLIC "-//W3C//DTD SVG 20010904//EN"
 "http://www.w3.org/TR/2001/REC-SVG-20010904/DTD/svg10.dtd">
<svg version="1.0" xmlns="http://www.w3.org/2000/svg"
 width="897.000000pt" height="897.000000pt" viewBox="0 0 897.000000 897.000000"
 preserveAspectRatio="xMidYMid meet">

<g transform="translate(0.000000,897.000000) scale(0.100000,-0.100000)"
fill="#000000" stroke="none">
<path d="M0 4485 l0 -4485 4485 0 4485 0 0 4485 0 4485 -4485 0 -4485 0 0
-4485z m6874 2794 c14 -23 21 -28 31 -19 11 9 15 0 21 -46 6 -48 1 -81 -24
-184 -17 -69 -33 -143 -37 -165 -4 -22 -22 -76 -40 -120 -19 -44 -70 -197
-114 -339 -44 -143 -84 -263 -89 -268 -16 -16 -54 108 -46 150 6 31 5 32 -25
32 -48 0 -101 26 -149 73 -67 64 -86 109 -79 182 14 143 64 230 160 279 75 38
161 42 205 9 37 -27 38 -24 48 84 4 43 11 86 16 95 4 10 20 61 33 114 25 96
49 154 63 154 4 0 16 -14 26 -31z m-1597 -312 c6 2 14 -1 18 -7 18 -28 0 -116
-70 -360 -43 -146 -90 -311 -105 -367 -16 -57 -40 -126 -53 -155 l-24 -53 -13
30 c-7 17 -12 34 -11 39 1 4 -3 23 -9 41 -8 24 -7 46 5 90 8 32 14 59 12 60
-1 1 -21 -6 -43 -16 -40 -18 -43 -22 -69 -106 -27 -88 -60 -163 -71 -163 -4 0
-3 12 0 26 5 17 2 32 -7 43 -37 44 -40 75 -17 188 12 59 28 121 36 137 8 16
14 35 14 43 0 19 37 90 51 99 6 4 16 -1 21 -10 5 -9 18 -16 28 -16 25 0 43
-35 36 -71 -6 -33 0 -36 30 -14 13 9 24 30 28 57 16 103 127 482 152 517 l17
24 16 -30 c9 -17 21 -28 28 -26z m-572 -93 c20 -13 28 -14 39 -5 21 17 24 4
22 -74 -2 -54 -13 -98 -49 -195 -25 -69 -45 -126 -43 -127 1 -1 26 15 55 37
29 22 61 40 71 40 16 0 17 -4 10 -30 -6 -23 -5 -32 6 -38 28 -16 4 -64 -66
-133 l-67 -66 56 -114 c76 -154 102 -217 90 -224 -5 -4 -14 5 -20 19 -7 14
-24 30 -38 36 -59 25 -81 43 -110 93 -16 28 -43 67 -59 86 l-29 34 -70 -209
c-88 -260 -112 -324 -122 -324 -10 0 -33 194 -25 214 5 14 -32 66 -47 66 -4 0
-23 10 -42 23 -25 16 -51 55 -102 154 l-69 132 -14 -32 c-7 -18 -39 -108 -72
-202 -85 -249 -126 -349 -140 -340 -6 3 -5 15 2 30 7 17 8 28 1 37 -9 11 -14
43 -15 98 -1 38 59 272 110 435 40 127 57 194 55 228 -1 42 2 49 22 57 13 5
25 15 28 22 3 9 11 4 26 -14 12 -15 27 -27 33 -25 5 1 24 -47 42 -108 33 -114
80 -246 96 -274 7 -11 9 4 10 50 0 36 7 88 16 115 8 27 17 61 20 77 5 33 41
107 53 107 5 0 14 -7 21 -15 7 -8 20 -15 30 -15 18 0 30 -27 30 -70 0 -14 -27
-114 -59 -223 l-60 -198 19 -42 c21 -50 17 -60 69 154 41 166 54 207 170 541
91 262 77 238 116 212z m1316 -114 l24 -20 -32 6 c-23 5 -39 1 -57 -14 -26
-20 -26 -20 -4 -25 21 -6 21 -7 5 -25 -9 -10 -25 -44 -36 -74 -23 -66 -16
-116 25 -185 28 -48 52 -58 121 -50 55 6 92 31 117 81 23 46 16 87 -25 149
-24 37 -41 50 -85 67 -30 11 -64 20 -74 20 -37 0 -20 16 34 33 45 14 63 15
107 6 65 -14 87 -32 130 -112 61 -113 43 -222 -53 -314 -45 -43 -99 -64 -167
-64 -124 -1 -183 36 -240 149 l-28 56 -5 -52 c-6 -62 -28 -97 -73 -119 -44
-21 -57 -10 -22 18 33 25 39 74 8 64 -14 -4 -20 1 -24 23 -9 45 -69 124 -110
145 -50 26 -121 33 -153 17 -36 -20 -78 -111 -70 -154 13 -67 63 -108 147
-119 38 -5 55 -1 104 23 32 16 62 35 66 42 19 30 18 -3 -2 -49 -15 -36 -34
-60 -71 -87 -49 -37 -52 -38 -112 -31 -81 9 -148 39 -190 85 -44 49 -60 99
-61 185 0 89 31 146 112 207 54 41 59 43 123 42 83 -2 183 -34 233 -75 21 -17
49 -52 62 -77 l24 -47 1 58 c0 89 46 177 114 218 41 25 107 25 137 -1z m-2732
-356 c14 -16 28 -23 40 -19 26 8 45 -43 38 -98 -7 -49 -133 -490 -148 -519
-13 -24 -21 -17 -25 18 -2 14 -11 35 -20 45 -9 10 -14 19 -10 19 4 0 -1 12
-12 28 -13 19 -17 35 -12 52 4 14 10 77 15 140 9 151 70 360 103 360 5 0 18
-11 31 -26z m439 -24 c31 -19 70 -85 58 -98 -3 -3 -15 7 -27 21 -26 34 -74 38
-64 7 5 -16 2 -20 -14 -20 -12 0 -46 -14 -76 -31 -43 -24 -59 -41 -79 -82 -60
-119 -5 -217 121 -217 114 0 170 132 108 255 -14 27 -31 52 -37 56 -28 18 4
20 46 4 33 -13 57 -33 87 -72 l42 -54 -11 -71 c-22 -142 -87 -216 -210 -238
-96 -17 -162 2 -229 68 -70 67 -87 110 -79 189 14 135 75 235 171 279 65 31
147 32 193 4z m-620 -58 c15 4 23 -3 36 -29 15 -32 15 -39 -5 -116 -38 -154
-130 -461 -141 -474 -13 -16 -29 -7 -22 12 3 7 -8 38 -25 69 -30 54 -31 58
-21 118 5 35 10 92 10 126 0 94 52 285 88 325 16 18 17 18 38 -9 15 -18 28
-25 42 -22z m-253 -48 c11 -18 23 -24 36 -21 28 8 53 -44 45 -94 -7 -44 -131
-482 -146 -516 -13 -31 -27 -29 -27 2 0 14 -8 34 -17 44 -9 9 -16 24 -16 32 0
8 -7 22 -14 32 -10 13 -11 28 -5 55 5 20 9 72 9 115 0 106 54 318 91 364 16
19 25 16 44 -13z m2972 -354 c7 -14 22 -50 33 -81 28 -78 64 -110 231 -211
l144 -86 65 5 c56 4 69 2 93 -17 22 -17 27 -29 27 -63 -1 -23 -8 -60 -16 -82
-8 -22 -52 -179 -99 -350 -193 -710 -460 -1623 -750 -2560 -68 -220 -140 -454
-161 -520 -34 -114 -39 -122 -88 -167 -55 -51 -87 -59 -118 -31 -24 21 -23 40
3 48 34 11 40 46 23 142 -19 108 -49 166 -131 252 l-62 65 5 56 6 55 -96 148
c-53 82 -96 153 -96 158 0 5 15 40 34 77 109 219 175 579 195 1074 9 201 11
222 49 373 23 88 84 347 137 575 171 743 227 919 348 1095 29 42 41 51 83 61
78 19 126 14 141 -16z m-1373 -362 c14 -6 44 -39 66 -73 79 -121 104 -133 300
-137 117 -2 148 -6 165 -20 52 -41 40 -159 -54 -533 -38 -148 -92 -369 -120
-490 -125 -540 -390 -1469 -730 -2559 -90 -288 -90 -289 -138 -338 -31 -31
-56 -48 -72 -48 -50 0 -83 62 -41 75 37 12 42 38 25 137 -19 114 -52 183 -110
237 -33 30 -45 49 -45 70 0 49 -25 114 -72 186 l-46 70 18 36 c68 132 110 519
130 1204 l9 320 50 205 c28 113 96 405 151 650 125 548 151 656 196 792 44
134 78 183 136 198 24 6 54 15 68 20 36 12 85 12 114 -2z m-1203 -476 c128
-45 159 -84 290 -357 94 -198 100 -218 88 -301 -34 -246 -302 -1173 -790
-2739 -217 -695 -196 -635 -247 -688 -54 -55 -99 -64 -126 -25 -21 30 -20 35
12 50 33 16 39 51 22 147 -16 96 -52 162 -130 239 l-68 67 11 52 11 52 -104
155 -103 156 26 57 c69 157 108 491 128 1107 10 321 13 348 40 456 39 161 110
475 164 735 108 514 156 651 264 746 43 38 163 92 245 109 62 14 204 4 267
-18z"/>
<path d="M6650 6801 c11 -21 4 -31 -22 -31 -32 0 -108 -51 -134 -89 -36 -55
-47 -128 -25 -166 20 -35 85 -75 123 -75 28 0 33 13 68 191 6 30 20 80 32 112
11 32 18 60 15 63 -2 3 -19 7 -36 9 -28 4 -30 2 -21 -14z"/>
<path d="M5771 6464 c0 -11 3 -14 6 -6 3 7 2 16 -1 19 -3 4 -6 -2 -5 -13z"/>
</g>
</svg>
