<?xml version="1.0" standalone="no"?>
<!DOCTYPE svg PUBLIC "-//W3C//DTD SVG 20010904//EN"
 "http://www.w3.org/TR/2001/REC-SVG-20010904/DTD/svg10.dtd">
<svg version="1.0" xmlns="http://www.w3.org/2000/svg"
 width="512.000000pt" height="512.000000pt" viewBox="0 0 512.000000 512.000000"
 preserveAspectRatio="xMidYMid meet">

<g transform="translate(0.000000,512.000000) scale(0.100000,-0.100000)"
fill="#000000" stroke="none">
<path d="M1965 4344 c-742 -20 -1159 -49 -1368 -94 -228 -50 -412 -216 -480
-435 -80 -257 -130 -970 -108 -1542 18 -472 55 -798 108 -968 68 -219 252
-385 480 -435 295 -64 927 -94 1963 -94 1036 0 1668 30 1963 94 184 40 348
161 430 318 88 167 134 482 158 1081 12 316 2 723 -27 1034 -42 458 -93 625
-239 772 -178 179 -364 218 -1245 255 -234 10 -1406 20 -1635 14z m970 -1526
c237 -137 430 -253 430 -258 0 -5 -193 -121 -430 -258 -236 -137 -532 -307
-657 -380 l-228 -131 0 769 0 769 228 -131 c125 -73 421 -243 657 -380z"/>
</g>
</svg>
